<svg width="99" height="114" viewBox="0 0 99 114" fill="none" xmlns="http://www.w3.org/2000/svg">
<g clip-path="url(#clip0_142_62)">
<path fill-rule="evenodd" clip-rule="evenodd" d="M87.371 17.4825C84.0473 16.6002 79.6686 19.6081 76.9905 22.2862C69.1903 30.5538 61.2119 34.1638 49.9763 35.1179C38.9936 35.3518 26.726 30.9262 18.7591 23.4709C14.2245 19.2276 5.14999 19.5653 1.48863 23.694C-2.17274 27.8227 1.36158 34.3257 5.1063 38.0584C10.7328 43.1807 17.3332 47.3292 24.6828 49.7937C32.2664 52.4915 39.7775 59.1717 48.1386 58.7554C56.4997 58.339 64.7558 50.8465 72.4619 47.3465C79.6904 43.8567 86.2263 39.1902 91.5919 33.3573C95.2532 29.2286 95.1322 23.2742 91.3875 19.5415C90.2173 18.375 88.7941 17.9287 87.371 17.4825Z" fill="#086DAC"/>
<path d="M92.7939 38.3599V41.8717L98.737 31.7414L92.7939 28.3646V31.7414L49.166 57.4049V64.0234L92.7939 38.3599Z" fill="#3D237E"/>
<path d="M98.737 47.9498L92.7939 44.5731V47.9498L49.166 73.6133V80.2318L92.7939 54.5683V58.0802L98.737 47.9498Z" fill="#3D237E"/>
<path d="M92.7939 69.8317V73.3436L98.737 63.2132L92.7939 59.8365V63.2132L49.166 88.8767V95.3601L92.7939 69.8317Z" fill="#3D237E"/>
<path d="M92.7939 83.4736V87.1205L98.737 76.8551L92.7939 73.6134V76.9902L49.166 102.519V109.137L92.7939 83.4736Z" fill="#3D237E"/>
<path d="M11.4811 92.3882L23.7726 99.4119V85.7697L11.4811 78.611V92.3882Z" fill="#086DAC"/>
<path d="M0.135071 28.3647L0 72.1277L11.481 78.6111V64.5637L23.7725 71.5874V57.54L36.064 64.5637V78.7462L23.7725 71.5874V85.7699L36.064 92.9287V106.571L49.1659 114V56.5945L0.135071 28.3647Z" fill="#3D237E"/>
<path fill-rule="evenodd" clip-rule="evenodd" d="M48.9988 1.69264C41.3424 1.92954 35.2327 8.49688 35.4699 16.141C35.7072 23.7851 42.2851 29.885 49.9415 29.6481C57.598 29.4112 63.7076 22.8438 63.4704 15.1997C63.0138 7.33772 56.6552 1.45574 48.9988 1.69264Z" fill="#086DAC"/>
</g>
<defs>
<clipPath id="clip0_142_62">
<rect width="98.737" height="114" fill="white"/>
</clipPath>
</defs>
</svg>
