<svg width="422" height="150" viewBox="0 0 422 150" fill="none" xmlns="http://www.w3.org/2000/svg">
<rect width="421.737" height="150" rx="75" fill="white"/>
<g clip-path="url(#clip0_137_3186)">
<path fill-rule="evenodd" clip-rule="evenodd" d="M129.371 35.4825C126.047 34.6002 121.669 37.6081 118.991 40.2862C111.19 48.5538 103.212 52.1639 91.9763 53.118C80.9936 53.3519 68.726 48.9262 60.7591 41.471C56.2245 37.2276 47.15 37.5654 43.4886 41.6941C39.8273 45.8228 43.3616 52.3257 47.1063 56.0584C52.7328 61.1807 59.3332 65.3292 66.6828 67.7937C74.2664 70.4916 81.7775 77.1717 90.1386 76.7554C98.4997 76.3391 106.756 68.8466 114.462 65.3466C121.69 61.8567 128.226 57.1902 133.592 51.3573C137.253 47.2286 137.132 41.2742 133.387 37.5415C132.217 36.375 130.794 35.9288 129.371 35.4825Z" fill="#086DAC"/>
<path d="M134.794 56.3599V59.8718L140.737 49.7415L134.794 46.3647V49.7415L91.166 75.405V82.0235L134.794 56.3599Z" fill="#3D237E"/>
<path d="M140.737 65.9499L134.794 62.5731V65.9499L91.166 91.6134V98.2319L134.794 72.5684V76.0802L140.737 65.9499Z" fill="#3D237E"/>
<path d="M134.794 87.8317V91.3436L140.737 81.2133L134.794 77.8365V81.2133L91.166 106.877V113.36L134.794 87.8317Z" fill="#3D237E"/>
<path d="M134.794 101.474V105.121L140.737 94.8551L134.794 91.6134V94.9902L91.166 120.519V127.137L134.794 101.474Z" fill="#3D237E"/>
<path d="M53.4811 110.388L65.7726 117.412V103.77L53.4811 96.611V110.388Z" fill="#086DAC"/>
<path d="M42.1351 46.3647L42 90.1278L53.481 96.6112V82.5638L65.7725 89.5875V75.5401L78.064 82.5638V96.7462L65.7725 89.5875V103.77L78.064 110.929V124.571L91.1659 132V74.5946L42.1351 46.3647Z" fill="#3D237E"/>
<path fill-rule="evenodd" clip-rule="evenodd" d="M90.9988 19.6926C83.3424 19.9295 77.2327 26.4969 77.4699 34.141C77.7072 41.7851 84.2851 47.885 91.9415 47.6481C99.598 47.4112 105.708 40.8438 105.47 33.1997C105.014 25.3377 98.6552 19.4557 90.9988 19.6926Z" fill="#086DAC"/>
</g>
<path d="M173.657 47.7938C173.657 49.2688 173.657 50.8005 173.657 52.3322C170.707 52.3322 169.232 52.3322 166.31 52.3322V55.1404H173.061C173.061 56.6437 173.061 58.147 173.061 59.6504H166.31C166.31 60.8133 166.31 61.9479 166.31 63.1393C169.232 63.1393 170.934 63.1393 173.912 63.1393C173.912 64.6142 173.912 66.146 173.912 67.6493C169.26 67.6493 165.857 67.6493 161.261 67.6493C161.261 61.0119 161.261 54.3745 161.261 47.7938C165.857 47.7938 169.005 47.7938 173.657 47.7938ZM176.879 61.1537V58.9413H183.744V61.1537H176.879ZM194.899 47.7938C207.833 47.8506 207.833 67.5926 194.899 67.6493H187.41V47.7938H194.899ZM192.488 52.4173V63.0258H194.899C201.224 63.0258 201.224 52.4173 194.899 52.4173H192.488ZM214.362 63.196H216.887C216.887 64.8695 216.887 65.919 216.887 67.6493C213.511 67.6493 210.193 67.6493 206.817 67.6493C206.817 65.919 206.817 64.8695 206.817 63.196H209.342V52.2188H207.016C207.016 50.5169 207.016 49.4674 207.016 47.7938C210.249 47.7938 213.455 47.7938 216.688 47.7938C216.688 49.4674 216.688 50.5169 216.688 52.2188H214.362V63.196ZM218.988 57.7216C219.016 50.9423 224.122 47.5386 229.171 47.5386C233.17 47.5669 237.34 49.6376 238.304 54.5731H233.312C232.489 52.8712 231.185 52.1904 229.171 52.1904C225.965 52.1904 224.235 54.6865 224.235 57.7216C224.235 61.0119 226.164 63.1676 229.171 63.1676C231.213 63.1676 232.518 62.6287 233.425 60.7282H229.199V56.3317H238.588C238.701 58.3172 238.701 60.2177 238.02 62.1465C236.602 66.2878 232.83 67.8762 229.171 67.8762C224.122 67.8762 219.016 64.5008 218.988 57.7216ZM248.517 63.196H251.041C251.041 64.8695 251.041 65.919 251.041 67.6493C247.666 67.6493 244.347 67.6493 240.972 67.6493C240.972 65.919 240.972 64.8695 240.972 63.196H243.496V52.2188H241.17C241.17 50.5169 241.17 49.4674 241.17 47.7938C244.404 47.7938 247.609 47.7938 250.843 47.7938C250.843 49.4674 250.843 50.5169 250.843 52.2188H248.517V63.196ZM257.699 52.3322H252.82C252.82 50.8005 252.82 49.2972 252.82 47.7938H267.57C267.57 49.2972 267.57 50.8005 267.57 52.3322H262.719V67.6493C261.046 67.6493 259.372 67.6493 257.699 67.6493V52.3322ZM282.219 67.6493L281.056 65.1532H273.227L272.064 67.6493H267.101V66.9118L276.035 47.5386H278.22L287.183 66.9118V67.6493H282.219ZM279.383 60.785L277.113 55.5658L274.901 60.785H279.383ZM294.867 47.7938C294.867 58.0619 294.867 54.6298 294.867 63.0825H302.072C302.072 64.7844 302.072 65.9474 302.072 67.6493C297.987 67.6493 293.789 67.6493 289.762 67.6493V47.7938C291.464 47.7938 293.137 47.7938 294.867 47.7938Z" fill="black"/>
<path d="M168.75 76.4953C181.684 76.552 181.684 96.294 168.75 96.3507H161.261V76.4953H168.75ZM166.339 81.1187V91.7272H168.75C175.075 91.7272 175.075 81.1187 168.75 81.1187H166.339ZM194.936 96.3507L193.773 93.8546H185.944L184.781 96.3507H179.817V95.6132L188.752 76.24H190.936L199.9 95.6132V96.3507H194.936ZM192.099 89.4864L189.83 84.2672L187.618 89.4864H192.099ZM204.321 81.0336H199.442C199.442 79.5019 199.442 77.9986 199.442 76.4953H214.192C214.192 77.9986 214.192 79.5019 214.192 81.0336H209.341V96.3507C207.668 96.3507 205.994 96.3507 204.321 96.3507V81.0336ZM228.841 96.3507L227.678 93.8546H219.849L218.686 96.3507H213.722V95.6132L222.657 76.24H224.841L233.805 95.6132V96.3507H228.841ZM226.004 89.4864L223.735 84.2672L221.523 89.4864H226.004ZM243.004 86.423C243.032 79.6438 248.138 76.24 253.187 76.24C257.186 76.2683 261.356 78.339 262.32 83.2745H257.328C256.505 81.5726 255.201 80.8918 253.187 80.8918C249.981 80.8918 248.251 83.3879 248.251 86.423C248.251 89.7133 250.18 91.869 253.187 91.869C255.229 91.869 256.534 91.3301 257.441 89.4297H253.215V85.0331H262.604C262.717 87.0186 262.717 88.9191 262.036 90.8479C260.618 94.9892 256.846 96.5776 253.187 96.5776C248.138 96.5776 243.032 93.2022 243.004 86.423ZM279.028 76.4953C279.028 77.9702 279.028 79.5019 279.028 81.0336C276.078 81.0336 274.603 81.0336 271.682 81.0336V83.8418H278.433C278.433 85.3451 278.433 86.8485 278.433 88.3518H271.682C271.682 89.5148 271.682 90.6494 271.682 91.8407C274.603 91.8407 276.305 91.8407 279.283 91.8407C279.283 93.3157 279.283 94.8474 279.283 96.3507C274.632 96.3507 271.228 96.3507 266.633 96.3507C266.633 89.7133 266.633 83.0759 266.633 76.4953C271.228 76.4953 274.376 76.4953 279.028 76.4953ZM298.901 96.3791L288.888 86.5932V96.3507C287.129 96.3507 285.371 96.3507 283.641 96.3507V76.4102H285.484L295.526 86.2244V76.4953C297.256 76.4953 298.986 76.4953 300.716 76.4953V96.3791H298.901ZM318.168 76.4953C318.168 77.9702 318.168 79.5019 318.168 81.0336C315.219 81.0336 313.744 81.0336 310.822 81.0336V83.8418H317.573C317.573 85.3451 317.573 86.8485 317.573 88.3518H310.822C310.822 89.5148 310.822 90.6494 310.822 91.8407C313.744 91.8407 315.445 91.8407 318.424 91.8407C318.424 93.3157 318.424 94.8474 318.424 96.3507C313.772 96.3507 310.368 96.3507 305.773 96.3507C305.773 89.7133 305.773 83.0759 305.773 76.4953C310.368 76.4953 313.517 76.4953 318.168 76.4953ZM335.659 89.3162L339.545 95.6132V96.3507H333.872L330.468 90.5075H327.83V96.3507C326.128 96.3507 324.398 96.3507 322.753 96.3507C322.753 89.7417 322.753 83.1327 322.753 76.4953C325.617 76.4953 328.567 76.4953 331.461 76.4953C339.261 76.5236 340.679 85.9124 335.659 89.3162ZM331.461 85.9408C334.212 85.9408 334.354 81.062 331.461 81.0336C330.269 81.0053 329.021 81.0336 327.83 81.0336C327.83 82.6504 327.83 84.3523 327.83 85.9408H331.461ZM350.301 92.0676C351.776 92.0676 353.308 91.2734 353.308 89.6566V76.4953C354.925 76.4953 356.626 76.4953 358.215 76.4953V89.7417C358.215 94.1099 354.386 96.6344 350.301 96.6344C346.245 96.6344 342.416 94.1099 342.416 89.7417V76.4953C344.004 76.4953 345.678 76.4953 347.266 76.4953V89.6566C347.266 91.2734 348.826 92.0676 350.301 92.0676ZM366.602 90.2806C366.602 92.8051 372.814 92.7484 372.814 90.4224C372.814 89.0326 371.169 88.8056 369.183 88.6922C364.872 88.3802 362.035 86.9052 361.978 82.5937C361.808 74.0275 377.239 74.0275 377.125 82.5937C375.338 82.5937 374.033 82.5937 372.303 82.5937C372.303 79.9558 366.971 80.1827 366.8 82.537C366.687 84.0403 368.162 84.3523 369.949 84.5509C373.892 84.9764 377.749 85.4869 377.749 90.4508C377.749 98.7901 361.581 99.017 361.695 90.2806C363.397 90.2806 364.872 90.2806 366.602 90.2806Z" fill="black"/>
<defs>
<clipPath id="clip0_137_3186">
<rect width="98.737" height="114" fill="white" transform="translate(42 18)"/>
</clipPath>
</defs>
</svg>
