<svg xmlns="http://www.w3.org/2000/svg" height="20" viewBox="0 -960 960 960" width="20"><path d="M173-106q-27.637 0-47.319-19.681Q106-145.363 106-173v-425q0-27.638 19.681-47.319Q145.363-665 173-665h218.5v-122.5q0-27.638 19.689-47.319t47.337-19.681h43.026q27.648 0 47.298 19.681 19.65 19.681 19.65 47.319V-665H787q27.638 0 47.319 19.681T854-598v425q0 27.637-19.681 47.319Q814.638-106 787-106H173Zm0-67h614v-425H568.5q0 28.5-19.4 47.75T501.5-531h-43q-28.2 0-47.6-19.4-19.4-19.4-19.4-47.6H173v425Zm72-73h234v-21q0-17.63-9.25-32.667Q460.5-314.704 444-322q-20.5-7.5-40.5-11.75T362-338q-21.5 0-42 4.25t-41 12.221Q263.5-315 254.25-300.12 245-285.239 245-267v21Zm330-47h141v-69H575v69Zm-213.118-69Q386-362 403-378.882q17-16.883 17-41Q420-444 403.118-461q-16.883-17-41-17Q338-478 321-461.118q-17 16.883-17 41Q304-396 320.882-379q16.883 17 41 17ZM575-409h141v-69H575v69ZM458.5-598h43v-189.5h-43V-598ZM480-385.5Z"/></svg>