<svg xmlns="http://www.w3.org/2000/svg" height="20" viewBox="0 -960 960 960" width="20"><path d="M385-479q-58.5 0-98.75-40.25T246-618q0-58.5 40.25-98.75T385-757q58.5 0 98.75 40.25T524-618q0 58.5-40.25 98.75T385-479ZM106-205v-86q0-25.5 12.25-45.5T151-369q59-33.5 118.75-49t115.144-15.5q10.106 0 19.606.5 9.5.5 20.5 1.5-6 16.5-9.5 33.038-3.5 16.537-5.5 32.962l-25-1q-46.5 0-96.75 11.75T184.5-311.5q-5.45 2.941-8.475 8.235Q173-297.971 173-291v19h247q4.346 18.129 11.423 34.315Q438.5-221.5 449-205H106Zm531 47-11-54q-14-5-27-12.25T575-241l-54 16-29-50 40-38q-4.5-14-4-30t4-30l-40-38 29-51 53 16q11-10.5 24.5-18.25T626-476l12.217-54H697l12 54q15 5 28.5 12t24.5 18l52-15 29 50-38 37q2 16 2 31.053 0 15.052-3 29.947l39 37-29 50-53-15q-11 9.5-24 17.25T709-212l-13.217 54H637Zm31.15-116q29.35 0 49.6-20.796 20.25-20.797 20.25-50Q738-374 717.538-394.5 697.075-415 667.726-415q-29.35 0-50.038 20.796-20.688 20.797-20.688 50Q597-315 617.9-294.5q20.901 20.5 50.25 20.5ZM385.212-546Q415-546 436-567.212q21-21.213 21-51Q457-648 435.788-669q-21.213-21-51-21Q355-690 334-668.788q-21 21.213-21 51Q313-588 334.212-567q21.213 21 51 21ZM385-618Zm35 346Z"/></svg>